<?xml version="1.0" encoding="utf-8"?>
<!-- Generator: Adobe Illustrator 22.0.1, SVG Export Plug-In . SVG Version: 6.00 Build 0)  -->
<svg version="1.1" id="Ebene_1" xmlns="http://www.w3.org/2000/svg" xmlns:xlink="http://www.w3.org/1999/xlink" x="0px" y="0px"
	 viewBox="0 0 348.3 567.9" style="enable-background:new 0 0 348.3 567.9;" xml:space="preserve">
<style type="text/css">
	.st0{fill:#2EB9F9;}
	.st1{fill:#F6FBFD;}
</style>
<path class="st0" d="M173.7,0c16.2,43.4,30.9,81.7,48.5,118.8c26.8,56.5,59.6,109.7,89.6,164.4c19.9,36.3,37.3,73.3,36.4,116.6
	c-1.7,84.6-70.2,159-155.6,167.3C104.7,575.7,23.2,518.3,4.4,435c-10.2-45.3-2.3-87.9,19.3-128.1c20-37.4,41.2-74.1,61.9-111.1
	C119.7,134.4,149,70.9,173.7,0z M111.9,216.1c-23.2,42.9-56.1,78.5-69.1,125.4c-5.9,21.1-9.1,42.5-6.9,64.5
	c0.7,7.1,1.3,15.5,10.2,16.4c10,1,12.7-8.2,14.2-15.2c3-13.8,3.5-28.1,6.4-41.9c9.3-44.5,26.5-86.5,42.8-128.8
	C111.8,230.8,117,225.4,111.9,216.1z"/>
<path class="st1" d="M111.9,216.1c5,9.3-0.2,14.8-2.4,20.4c-16.3,42.3-33.5,84.3-42.8,128.8c-2.9,13.8-3.4,28.1-6.4,41.9
	c-1.5,7-4.3,16.3-14.2,15.2c-8.9-0.9-9.5-9.3-10.2-16.4c-2.2-22,1-43.4,6.9-64.5C55.8,294.5,88.7,258.9,111.9,216.1z"/>
</svg>
