<?xml version="1.0" encoding="utf-8"?>
<!-- Generator: Adobe Illustrator 22.0.1, SVG Export Plug-In . SVG Version: 6.00 Build 0)  -->
<svg version="1.1" id="Ebene_1" xmlns="http://www.w3.org/2000/svg" xmlns:xlink="http://www.w3.org/1999/xlink" x="0px" y="0px"
	 viewBox="0 0 336.9 383.4" style="enable-background:new 0 0 336.9 383.4;" xml:space="preserve">
<style type="text/css">
	.st0{fill:#9ADB10;}
	.st1{fill:#C1F74F;}
	.st2{fill:#FEFEFE;}
	.st3{fill:#BDF744;}
	.st4{fill:#94D901;}
	.st5{fill:#93D901;}
	.st6{fill:#BEF745;}
</style>
<g>
	<path class="st0" d="M168.4,0.1c54.7,0,109.3,0,164-0.1c3.5,0,4.9,0.1,4.4,4.7c-3.1,31.4-5.7,62.9-8.5,94.3c-3,33.1-6,66.2-9,99.3
		c-3,32.9-6,65.8-9,98.7c-1.3,14.2-2.7,28.4-3.9,42.7c-0.3,3.4-1.7,5.1-5.2,6.1c-43,12.3-86,24.7-129,37.1c-2.5,0.7-4.8,0.8-7.3,0
		c-43.1-12.5-86.3-24.9-129.5-37.2c-3.4-1-4.5-2.8-4.8-5.9c-1.7-19.7-3.5-39.4-5.3-59c-1.7-18.7-3.4-37.4-5.1-56.1
		c-2.3-26.1-4.6-52.3-7-78.4c-2.2-23.5-4.5-46.9-6.6-70.4c-1.9-20.3-3.6-40.7-5.4-61c-0.4-4-0.6-8-1.3-11.9C-0.3,0.7,0.2-0.1,2.5,0
		c1.2,0.1,2.3,0,3.5,0C60.1,0.1,114.3,0.1,168.4,0.1z"/>
	<path class="st1" d="M167.5,69.9c0.3,0,0.6,0,1,0c1.1-0.6,2.3-0.4,3.4-0.4c32.6,0,65.3,0,97.9,0c1,0,2.3-0.7,2.7,0
		c-1-0.4-2.6-0.1-4.1-0.1c-31.5,0-63,0-94.4,0c-1.8,0-3.7,0.5-5.4-0.5c0-12,0-24-0.2-36c0-3,1-4,4-4c43.3,0.1,86.7,0.1,130,0
		c3.3,0,4.1,0.8,3.6,4.4c-1.2,8.9-1.7,17.8-2.5,26.7c-1.2,13.4-2.9,26.7-3.7,40.1c-0.8,12.1-2.2,24.1-3.3,36.2
		c-1.3,14.4-2.6,28.7-3.9,43.1c-1.1,12.4-2,24.8-3.2,37.2c-1.5,16.2-3.5,32.3-4.6,48.5c-0.9,12.3-2.3,24.4-3.3,36.7
		c-0.4,5.5-0.7,10.9-1.2,16.4c-0.3,3-1.4,5.1-4.8,6.1c-33.9,9.5-67.8,19.1-101.6,28.8c-3.1,0.9-4.3,0.8-4.7-3.3
		c-1.3-11.8-0.4-23.6-0.5-35.4c0-2.2-0.5-3.3-2.2-4.2c1.8-1.9,4.3-1.6,6.5-2.2c24.8-7,49.6-14.3,74.5-21.1c4.3-1.2,6.8-2.9,7.1-7.9
		c0.8-10.8,1.7-21.5,2.8-32.3c0.4-3.9-1.4-3.7-4.1-2.9c-20.4,6.2-40.9,12-61.3,18.1c-6.2,1.8-12.4,3.9-18.7,5.5
		c-2.1,0.5-4.3,1.3-5.7-1.3c-0.9-2.4-0.7-4.9-0.7-7.4c0-45.4,0-90.8,0-136.3c0-2.8-0.4-5.7,1.2-8.3c2-1.9,4.6-1.6,7.1-1.6
		c14.8-0.1,29.6-0.1,44.4,0c7.5,0,9.1,1.6,8.4,9.3c-0.9,9.4-1.5,18.9-2.3,28.3c-0.1,1.7-0.5,3.3,0.2,4.9c1.1,1.7,2.7,1.6,4.4,1.6
		c10,0,19.9,0,29.9,0c1.7,0,3.4,0,4.4-1.7c2.4-9.8,2.5-19.8,3.3-29.7c1.2-14.1,2.9-28.1,3.8-42.2c0.1-0.8,0.2-1.7,0.3-2.5
		c0.6-7.6,0.5-7.8-7.3-7.8c-64.6,0-129.2,0-193.8,0c-3.1,0-6.4,0.7-9.2-1.5c0.3-0.4,0.7-0.8,1-1.2c1.1-0.5,2.3-0.3,3.4-0.3
		c32.6,0,65.3,0,97.9,0C165.2,69.6,166.4,69.4,167.5,69.9z"/>
	<path class="st2" d="M168.6,267c13.6-3.1,26.8-7.7,40.2-11.5c15.5-4.4,30.9-9,46.4-13.8c3.8-1.2,4.4-0.4,4,3.5
		c-1.4,12.2-2.5,24.5-3.4,36.7c-0.2,3.1-1.2,4.3-4.1,5.1c-26.2,7.4-52.4,14.8-78.6,22.3c-2.1,0.6-4.2,0.8-6.4,0.7
		c-26.7-7.4-53.4-14.9-80.1-22.1c-3.5-0.9-5.1-2.4-5.4-6.2c-0.9-12.7-2.2-25.5-3.4-38.2c-0.2-2,0-4-0.9-5.8c-1-0.9-0.8-1.8-0.1-2.7
		c-1.1-14.3-2.2-28.5-3.4-42.8c-1.8-20.9-3.8-41.8-5.8-62.6c-1.6-17.7-3.2-35.5-4.7-53.2c-0.2-1.8-1.6-3.3-1-5.3
		c0.5,0,1-0.1,1.5-0.1c69-0.1,138-0.1,206.9-0.2c3.6,0,4.2,0.8,3.8,4.5c-2.1,20.7-3.7,41.4-5.5,62.1c-0.6,6.5-1.3,12.9-1.9,19.4
		c-0.4,0.3-0.6,0.7-1.2,0.7c-13.4,0.1-26.7,0-40.1,0c-0.7,0-1.3-0.2-1.6-0.9c1-12.9,1.9-25.8,3-38.7c0.2-3-0.4-4.2-3.7-4.1
		c-18.1,0.2-36.2,0.2-54.3,0.2c-2.1,1.8-4.7,1.5-7.1,1.5c-14.5,0-29,0-43.4,0c-6.8,0-7,0.5-6.5,7.1c1.4,18.1,3,36.1,4.6,54.2
		c1.6,17.2,2.7,34.5,4.6,51.7c0.7,5.9,1,11.9,1.3,17.9c0.2,4.3,2.1,6.6,6.3,7.7c11.1,3.1,22.1,6.3,33.1,9.5
		C163.9,264.5,166.6,265,168.6,267z"/>
	<path class="st3" d="M168.7,69c34.9,0,69.8,0,104.8,0c0,0.3,0,0.6,0,0.9c-35,0-70,0-105,0C168.5,69.6,168.6,69.3,168.7,69z"/>
	<path class="st4" d="M167.5,69.9c-34.9,0-69.9,0-104.8,0c1.4-1.4,3.1-0.8,4.7-0.8c31.8,0,63.6,0,95.3,0
		C164.3,69.1,166.1,68.5,167.5,69.9z"/>
	<path class="st5" d="M76.6,235c0,0.9,0.1,1.8,0.1,2.7c-0.1,0.8-0.3,1.5-0.7,3.6C75.5,238.2,75,236.5,76.6,235z"/>
	<path class="st0" d="M168.6,267c-15.2-3.5-30-8.5-45.1-12.7c-2.7-0.8-2.5-2.9-2.7-4.7c-1.8-20.7-3.6-41.4-5.3-62.2
		c-1.9-21.9-3.7-43.8-5.7-65.6c-0.7-8-0.9-8,7.3-8c17.2,0.1,34.3,0.2,51.5,0.2C168.6,165,168.6,216,168.6,267z"/>
	<path class="st6" d="M223.6,156.6c14.3,0.1,28.6,0.1,42.9,0.2c-0.8,1.5-2.2,1.3-3.5,1.3c-12,0-24.1,0-36.1,0
		C225.7,158,224.2,158.2,223.6,156.6z"/>
</g>
</svg>
