<?xml version="1.0" encoding="utf-8"?>
<!-- Generator: Adobe Illustrator 22.0.1, SVG Export Plug-In . SVG Version: 6.00 Build 0)  -->
<svg version="1.1" id="Ebene_1" xmlns="http://www.w3.org/2000/svg" xmlns:xlink="http://www.w3.org/1999/xlink" x="0px" y="0px"
	 viewBox="0 0 2000 836" style="enable-background:new 0 0 2000 836;" xml:space="preserve">
<style type="text/css">
	.st0{fill:#FFFFFF;}
</style>
<g>
	<path class="st0" d="M753,0c2.8,0.3,5.6,0.8,8.4,0.9c63.1,1.8,125.5,8.7,187.4,20.9c84.7,16.6,166.3,42.5,243.6,81.2
		c50.6,25.3,97.8,55.6,140.1,93.5c1.2,1.1,2.4,2.2,3.2,3.7c-11.1-6-22-12.2-33.2-17.8c-58.1-29.4-119.6-49.1-183-63.4
		c-52.9-11.9-106.4-19.6-160.4-23.8c-56.5-4.4-113.1-5.4-169.8-2.5c-72.5,3.8-144.2,13.6-214.6,31.3c-66.3,16.6-130.2,39.4-190,72.9
		c-13.2,7.4-25.8,15.8-38.8,23.7c-2.6,1.6-3.1,3.2-2.4,6.1c21.2,91.4,42.4,182.8,63.6,274.2c0.3,1.1,0.7,2.2,1.5,4.5
		c1.7-6.1,3.2-11.1,4.6-16.1c25-89.6,49.9-179.2,74.7-268.8c1.1-3.9,2.7-4.8,6.5-4.8c17,0.2,34,0.2,51,0c4.2-0.1,5.6,1.4,6.7,5.2
		c25.8,93,51.8,185.9,77.7,278.8c0.4,1.6,1,3.1,2.2,4.6c3-13.1,6.1-26.1,9.1-39.2c18.8-81.4,37.6-162.8,56.3-244.2
		c0.9-3.9,2.3-5.4,6.5-5.3c18.7,0.3,37.3,0.1,56,0.1c1.6,0,3.2,0,5.4,0c-4.1,15.1-8,29.3-11.8,43.6C723.6,369,693.7,478.7,664,588.3
		c-1.1,3.9-2.5,5.6-6.9,5.5c-17.8-0.3-35.6-0.1-53.9-0.1c-27.5-98.7-54.9-197.2-82.7-297c-1,3-1.8,4.8-2.3,6.6
		c-26.8,95.1-53.6,190.2-80.2,285.4c-1.1,4-2.7,5.1-6.8,5.1c-17.8-0.2-35.6-0.1-53.8-0.1c-28.8-109.4-57.5-218.6-86.3-328
		c-0.7,0.2-1.3,0.2-1.6,0.5c-30.7,30.1-55.1,64.2-66.5,106.3c-13.1,48.4-5.3,94.1,19.2,137.2c21.2,37.3,51,66.9,85,92.4
		c49.6,37.2,104.9,63.6,163,84.5c57.8,20.7,117.3,34.9,178,44.4c78.9,12.3,158.4,16.3,238.2,13c84.6-3.4,168.2-14,250.2-35.8
		c60.4-16,118.6-37.5,173-68.8c0.9-0.5,2-0.9,3.5-0.6c-2.7,2.4-5.3,4.8-8,7.2c-43.9,37.7-92.7,67.8-144.7,92.8
		c-67.5,32.5-138.3,55.4-211.4,71.3c-40.9,8.9-82.1,15.6-123.7,19.5c-28,2.6-56.2,3.7-84.3,5.5c-3,0.2-5.9,0.6-8.9,0.9
		c-18.7,0-37.3,0-56,0c-2.5-0.3-4.9-0.7-7.4-0.8c-48.7-1.1-97.1-5.4-145.2-12.5c-63.8-9.5-126.4-24-187.5-44.9
		c-66.9-22.9-130.5-52.5-188.8-92.9c-44.4-30.8-84-66.7-115-111.3c-25.4-36.4-43-76.1-49.3-120.3C1.8,445.8,0.9,438.4,0,431
		c0-8.7,0-17.3,0-26c0.3-1.4,0.8-2.9,0.9-4.3c2.3-35.7,12.5-69.3,28.8-101c25.5-49.7,62.3-89.9,105.4-124.6
		c60.4-48.6,128.6-83.2,201.1-109.9c68.5-25.2,139-42,211.2-52.4c44.4-6.4,89-10.4,133.8-11.8c4.3-0.1,8.6-0.6,12.9-1
		C713.7,0,733.3,0,753,0z"/>
	<path class="st0" d="M2000,590c-3.5,0-6.9,0-10.8,0c0-10.9,0-21.3,0-31.7c-0.4-0.1-0.7-0.1-1.1-0.2c-1,3.4-2.1,6.8-3.1,10.2
		c-1.6,5.8-3.4,11.5-4.7,17.3c-0.7,3.3-2,4.7-5.6,4.6c-3.5,0-4.9-1-5.8-4.4c-2-8.2-4.5-16.4-6.8-24.5c-0.3-1-0.8-2-2-2.8
		c0,10.2,0,20.5,0,31.1c-3.6,0-6.8,0-10.4,0c0-14.6,0-29.3,0-44.3c5.5,0,10.9,0,16.8,0c2.5,9.5,5,19,7.5,28.6c0.3,0,0.6,0.1,0.9,0.1
		c2-7.6,4.4-15,5.9-22.7c1-5,2.9-7.1,8.1-6.4c3.6,0.5,7.3,0.1,11,0.1C2000,560,2000,575,2000,590z"/>
	<path class="st0" d="M1507.4,459.6c-26.1,0-51.3,0-76.9,0c0-19.1,0-37.7,0-56.5c48.4,0,96.4,0,144.9,0c0,62.1,0,124.2,0,186.7
		c-1.1,0.2-2.4,0.5-3.7,0.5c-13.3,0-26.7-0.1-40,0.1c-3.3,0-4.5-1-5.1-4.3c-2-11.4-4.5-22.7-6.9-35c-3,3.3-5.3,6-7.7,8.7
		c-22.4,25.3-51.1,37.1-84.4,38.1c-35.5,1.1-68.8-6.9-98.8-26.4c-34.7-22.6-56.5-54.8-67.1-94.3c-14.8-55.5-11.3-109.8,16.6-160.8
		c25.3-46.4,65.3-72.6,117.4-80.3c33.2-4.9,65.6-1.9,96.2,12.3c43.6,20.2,70.1,53.8,77.6,101.8c0.2,1.3,0.3,2.7,0.3,4
		c0,0.6-0.1,1.3-0.3,2.2c-1.5,0.1-3,0.3-4.5,0.3c-21,0-42-0.1-63,0.1c-3.5,0-4.9-1.2-5.8-4.4c-10.9-41.3-44.5-56.4-80.1-53.9
		c-39.8,2.8-65,24.8-77.4,61.3c-13.7,40.1-13.8,80.6,2.3,120.2c11.3,27.7,31.3,46.5,61.4,52.6c18.4,3.7,36.9,3.1,54.8-2.6
		c27.4-8.7,41.7-28.9,47.6-56.1C1506,469.5,1506.5,465,1507.4,459.6z"/>
	<path class="st0" d="M1039.7,365.8c1.5-1.3,2.1-1.8,2.6-2.3c28.4-31.7,72.7-35.2,107.1-21c30,12.4,48.8,35.8,58.1,66.1
		c15,48.9,11,96.8-14.4,141.5c-21.7,38.2-56.7,53.1-99.8,50.1c-21.6-1.5-39.7-10.4-53.7-27.2c-0.4-0.5-0.9-0.9-2.3-2.1
		c0,8,0,15.2,0,22.6c-15.7,0-30.6,0-46,0c0-114.2,0-228.3,0-342.9c15.9,0,31.8,0,48.3,0C1039.7,288.7,1039.7,326.7,1039.7,365.8z
		 M1165.7,465.1c-1.6-12.5-2.4-25.2-4.9-37.5c-3.4-16.8-10.9-31.5-26.4-40.7c-33.3-19.7-73.7-6-87.4,30
		c-9.4,24.5-10.5,50.1-8.4,75.8c0.7,8.8,3.1,17.8,6.3,26c9.7,24.9,31.6,39.5,57.7,39.2c24.7-0.2,43.4-13.9,53.5-39.4
		C1162.9,501.4,1164.5,483.4,1165.7,465.1z"/>
	<path class="st0" d="M1699.8,243.3c0,94.2,0,188.1,0,282.6c56.6,0,112.6,0,168.9,0c0,21.5,0,42.5,0,63.7c-81.5,0-162.9,0-244.5,0
		c0-115.4,0-230.7,0-346.3C1649.2,243.3,1674,243.3,1699.8,243.3z"/>
	<path class="st0" d="M959.4,484.4c-59.5,0-118.9,0-178.2,0c-1.2,30.4,11.5,66.3,52.8,72.5c36.6,5.5,68.5-14.2,74.5-47.1
		c15.9,0,31.8,0,48.6,0c-0.7,3.7-1,7.2-1.9,10.6c-9.3,35.5-40,77.3-98.3,79.7c-21.9,0.9-43.3-0.2-63.5-9.5
		c-31.2-14.4-50.3-39.3-58.6-71.8c-11.5-45.1-8.5-89.5,14.6-130.7c18.6-33.3,48.8-49.4,86.1-52.9c21.9-2.1,43.3,0,63.3,10.1
		c24.2,12.2,39.2,32.5,48.6,57.3c9.8,25.6,12.7,52.3,12.5,79.4C959.9,482.5,959.7,483.2,959.4,484.4z M780.9,444
		c42.8,0,85.3,0,127.8,0c2.9-34.5-23.6-63.2-58-65.4C807.2,375.8,780.9,415.1,780.9,444z"/>
	<path class="st0" d="M1919,554.8c-5.1,0-9.2,0-13.6,0c0-3.3,0-6.2,0-9.5c12.7,0,25.3,0,38.1,0c0,3,0,5.9,0,9.4c-4.3,0-8.5,0-13.4,0
		c0,11.9,0,23.3,0,35c-3.9,0-7.2,0-11.2,0C1919,578.4,1919,567,1919,554.8z"/>
</g>
</svg>
