<?xml version="1.0" encoding="utf-8"?>
<!-- Generator: Adobe Illustrator 22.0.1, SVG Export Plug-In . SVG Version: 6.00 Build 0)  -->
<svg version="1.1" id="Ebene_1" xmlns="http://www.w3.org/2000/svg" xmlns:xlink="http://www.w3.org/1999/xlink" x="0px" y="0px"
	 viewBox="0 0 765.6 765" style="enable-background:new 0 0 765.6 765;" xml:space="preserve">
<style type="text/css">
	.st0{fill:#FFFFFF;}
</style>
<g>
	<path class="st0" d="M400.6,654.3c-1.2,2.1-0.7,4-0.7,5.7c0,28.8,0,57.7,0,86.5c0,10.6-6,17.9-15,18.4
		c-10.4,0.6-17.5-6.6-17.6-17.9c-0.1-29,0-58,0-87c0-1.8,0-3.6,0-6c-3.2,1.2-4.9,3.4-6.9,5.3c-17,16.5-33.9,33-50.9,49.5
		c-7.6,7.4-16.9,7.8-23.6,1.4c-6.7-6.4-7.2-16.3-0.7-22.7c17.6-17.3,35.4-34.4,53.1-51.6c9.1-8.8,18.1-17.7,27.3-26.5
		c1.3-1.3,1.8-2.6,1.8-4.4c0-20.7,0-41.3,0-62c-1.9-0.7-2.4,0.9-3.3,1.7c-10.1,9.5-20,19.1-30.1,28.6c-7.4,7-16.8,7.5-23.3,1.5
		c-7-6.4-7.6-16.5-0.7-23.1c17.4-16.8,34.9-33.4,52.6-49.8c3.3-3.1,5-6,4.9-10.6c-0.3-20.3-0.1-40.7-0.1-61c0-1.6,0.5-3.3-0.4-4.7
		c-6.7,6.5-13.5,12.7-20,19.4c-14.2,14.6-28.2,29.3-42.3,43.9c-16.5,17.2-33,34.3-49.7,51.4c-2.2,2.2-2.9,4.5-2.9,7.5
		c0.1,35.8,0.1,71.7,0,107.5c0,12.4-10.5,20.3-21.5,16.4c-6.6-2.3-10.5-8-10.5-15.4c0-24.2,0-48.3,0-72.5c0-1.8,0-3.6,0-5.4
		c-0.4-0.3-0.8-0.5-1.1-0.8c-3.5,3.6-7,7.1-10.5,10.7c-18.8,19.4-37.5,38.8-56.3,58.2c-1.7,1.8-3.3,3.7-5.1,5.5
		c-6.8,7-16.5,7.5-23.2,1.1c-7.1-6.8-7.3-16.1-0.2-23.4c18.6-19.3,37.3-38.6,55.9-57.9c5.8-6,11.4-12.1,17.4-18.4
		c-2-1.1-3.8-0.6-5.5-0.6c-23.7,0-47.3,0-71-0.1c-8.2,0-14.6-5.7-16-13.8c-1.3-7.2,3.3-14.7,10.4-17.4c2.8-1.1,5.6-0.8,8.4-0.8
		c33.5,0,67-0.1,100.5,0.1c3.7,0,6.2-1.1,8.7-3.7c31.1-32.3,62.3-64.5,93.4-96.7c6.9-7.2,13.7-14.4,20.6-21.6
		c-0.9-1.5-2.2-0.9-3.2-0.9c-23.7-0.1-47.3-0.1-71-0.3c-3.1,0-5.3,0.9-7.4,3.1c-16.3,17.4-32.8,34.6-49.1,51.9
		c-8.6,9.1-21.2,8.8-27.3-0.8c-4-6.3-3.2-14.1,2.1-19.8c9.6-10.2,19.2-20.3,28.8-30.5c1.1-1.2,2.6-2,3.2-4.4c-1.6,0-3,0-4.4,0
		c-18.3,0-36.7,0-55-0.2c-4-0.1-6.8,1.1-9.6,4c-24.9,25.7-50,51.4-75,77c-5.7,5.9-14.9,7.1-21,3c-6.8-4.6-9.3-12.8-6.1-20.2
		c1.1-2.5,3-4.4,4.8-6.3c17.3-17.6,34.5-35.3,51.7-52.9c1-1.1,2-2.2,3.1-3.4c-1.6-1.8-3.5-1.1-5.2-1.1c-28.3-0.1-56.7-0.1-85-0.2
		c-6.1,0-12.1-0.4-16.5-5.4c-4.6-5.2-5.8-11.3-2.8-17.7c2.9-6.3,8.1-9.5,15.2-9.5c29.3,0,58.7,0.1,88,0.1c1.8,0,3.6,0,5.7,0
		c0-2.4-1.8-3.2-3-4.4c-17-17.4-34-34.8-51-52.2c-5.6-5.8-7.1-12.9-4.1-19.2c2.9-6.1,9-9.7,15.8-9.3c4.8,0.3,8.4,2.7,11.6,6.1
		c24.6,25.3,49.3,50.6,73.9,75.9c2.6,2.7,5.3,3.9,9.1,3.9c19.8-0.2,39.6-0.1,60.4-0.1c-3.8-4.2-7-7.9-10.4-11.5
		C206,346,199,338.6,192,331.2c-7.3-7.8-7.5-17.2-0.5-24c6.7-6.5,16.8-5.9,23.9,1.7c16,17,32,33.9,47.8,51.1c3.4,3.7,6.9,5.3,12,5.3
		c22-0.3,44-0.1,66-0.1c0.5-2-1.2-2.6-2.1-3.6c-33.4-34.2-66.8-68.4-100.2-102.6c-0.3-0.4-0.8-0.7-1-1.1
		c-5.6-9.4-14.3-10.7-24.3-10.9c-28.6-0.4-57.3-1.4-85.9-2.1c-4.5-0.1-9-0.5-13.5-0.7c-8.5-0.5-15.1-7.7-15-16.3
		c0.1-8.6,7-15.9,15.5-15.7c21.8,0.4,43.6,1.2,65.4,1.9c4.5,0.1,9,0,13.5,0c0.6-2.5-1.5-3.2-2.7-4.4c-22.7-23.3-45.4-46.5-68.2-69.7
		c-3.2-3.3-6-6.7-6.6-11.5c-0.9-7.1,2.5-13.6,8.6-16.6c6.4-3.2,13.6-2.2,18.8,3.1c24.5,25,48.9,50,73.4,75c0.7,0.7,1.4,1.3,2.8,2.6
		c0.4-8.3,1-15.8,1.2-23.4c0.5-17.1,0.9-34.3,1.3-51.4c0.3-9.9,7.2-17.4,16.2-17.5c9.1-0.1,16.7,7.7,16.4,17.7
		c-1,34.4-2.3,68.9-3.5,103.3c-0.1,2.5,0.6,4.4,2.4,6.2c11.5,11.6,22.8,23.4,34.2,35.1c25,25.7,50,51.3,75,77c1,1.1,1.8,2.4,2.5,3.3
		c2.4-0.9,1.7-2.3,1.7-3.3c0-21.5,0-43,0.1-64.5c0-3.3-1.5-5.2-3.6-7.2c-17.8-16.8-35.7-33.6-53.4-50.4c-6.3-5.9-7.6-13.3-4.1-19.9
		c5.2-9.7,17.4-11.8,25.5-4.3c10.4,9.6,20.7,19.4,31,29.1c1.2,1.1,2.4,2.2,3.6,3.3c1.6-1.1,0.9-2.6,0.9-3.7c0-19.3,0-38.7,0.1-58
		c0-2.4-0.3-4.4-2.2-6.3c-18.9-18.1-37.6-36.3-56.5-54.5c-7.1-6.8-14.2-13.6-21.2-20.5c-8.2-8-9.1-17.7-2.2-24.7
		c7-7.1,16.7-6.4,25.2,1.8c17.9,17.4,35.9,34.7,53.9,52.1c0.7,0.7,1.2,1.6,3,1.6c0-1.7,0-3.4,0-5.2c0-30.2,0-60.3,0-90.5
		c0-11,7.1-18.1,17.2-17.7c9.1,0.4,15.3,7.6,15.4,18.1c0.1,23.3,0,46.7,0,70c0,6.7-0.1,13.3,0,20c0,1.5-1,3.7,0.9,4.4
		c1.5,0.5,2.4-1.4,3.4-2.4c13.4-13.2,26.8-26.5,40.2-39.7c4-4,8-8.1,12.1-11.9c7.7-7.2,17.5-7.3,24.1-0.3c6.4,6.8,5.9,16.3-1.5,23.6
		c-25,24.7-50.1,49.4-75.2,73.9c-2.8,2.8-4.1,5.5-4.1,9.6c0.2,18.2,0.1,36.3,0.1,54.5c0,1.3-0.6,3.1,0.6,3.7c1.7,0.9,2.5-1.1,3.5-2
		c9.7-9.1,19.3-18.4,29-27.5c6.6-6.2,15.5-6.8,21.8-1.8c7.9,6.2,8.8,17.1,1.5,24.1c-16.1,15.5-32.2,30.9-48.7,45.9
		c-5.4,4.9-8.2,9.7-8,17.4c0.6,20.8,0.2,41.6,0.2,62.9c3.7-1.5,5.6-4.5,7.9-6.9c19.3-19.8,38.5-39.7,57.7-59.7
		c15.6-16.2,31.2-32.4,46.9-48.5c2.2-2.3,2.9-4.5,2.9-7.5c-0.1-36.2-0.1-72.3,0-108.5c0-8.1,5.3-14.6,13-16.1
		c7.5-1.5,15.1,2.8,18.2,10.1c1.1,2.7,1,5.6,1,8.4c0,23.5,0,47,0,70.5c0,1.7-0.5,3.6,0.7,5.5c2.6-1.2,3.9-3.6,5.7-5.4
		c22.6-23.3,45.2-46.7,67.8-70.1c4.8-5,10.5-6.5,16.9-4.8c6.4,1.7,10,6.4,11.3,12.8c1.2,5.7-1,10.5-4.9,14.5
		c-13.4,13.9-26.9,27.8-40.3,41.7c-10.4,10.8-20.9,21.6-31.3,32.4c-1,1-2.4,1.9-2.3,3.7c1.7,0.9,3.5,0.4,5.3,0.4
		c23.7,0.1,47.3,0,71,0.1c8.4,0.1,14.5,6,15.6,14.6c0.9,7.1-4.2,14.5-11.5,16.8c-2.1,0.7-4.3,0.6-6.4,0.6c-33.5,0-67,0.1-100.5-0.1
		c-4.1,0-7.1,1.1-10,4.1c-33.8,35.2-67.9,70.2-101.8,105.3c-2.7,2.8-5.3,5.8-8.7,9.6c5.9,0,10.6,0,15.4,0c17.2,0,34.3,0,51.5,0.2
		c3.5,0,5.9-1,8.3-3.5c16.4-17.5,33-34.9,49.5-52.3c4.6-4.9,10.3-6.6,16.8-4.9c6.5,1.7,10,6.3,11.4,12.7c1.2,5.7-0.9,10.5-4.8,14.5
		c-8.7,9.2-17.5,18.3-26.2,27.5c-1.5,1.5-3.3,2.9-4,5c0.5,1.4,1.6,0.9,2.5,0.9c18.5,0.2,37-0.4,55.5,0.7c4,0.3,6.8-1.2,9.6-4
		c24.8-25.1,49.8-50.1,74.7-75.2c3.7-3.7,7.8-6,13.2-5.8c6.1,0.2,10.6,2.9,13.5,8c3.1,5.5,3,11.2-0.4,16.6c-2.7,4.3-6.7,7.4-10.2,11
		c-14.8,14.9-29.6,29.8-44.4,44.7c-1.2,1.2-2.8,2.3-3.5,4.9c8.6,0,16.7,0,24.8,0c23.8,0,47.7,0,71.5,0.1
		c13.5,0.1,21.5,13.3,14.9,24.4c-3.3,5.5-8.2,7.8-14.6,7.8c-30.5-0.2-61-0.2-91.5-0.2c-1.7,0-3.6-0.5-5.7,0.7c2.4,2.7,4.6,5.3,7,7.8
		c16,16.7,32,33.4,48.1,50.1c7.2,7.5,7.5,17.5,0.5,23.9c-7.1,6.5-16.9,5.6-24-1.8c-21.2-22.2-43.2-43.6-63.4-66.6
		c-10.1-11.5-20.5-15.8-35.3-14.5c-14.7,1.2-29.5,0.3-45.3,0.3c5.3,5.8,9.9,10.9,14.7,15.9c5.9,6.3,11.9,12.6,17.8,18.9
		c6.6,7,6.6,17,0.1,23.3c-6.6,6.3-16.7,6.2-23.3-0.7c-16.6-17.5-33.1-35.2-49.4-53c-3.3-3.6-6.4-5.4-11.5-5.3
		c-20.2,0.3-40.3,0-60.5,0c-1.7,0-3.6-0.5-5.3,0.5c0,2,1.7,2.8,2.8,4c34.7,35.5,69.8,70.7,103.8,106.8c8.1,8.6,16.4,11.5,27.2,11.6
		c19.7,0.2,39.3,0.7,58.9,1.3c13.1,0.4,26.3,0.8,39.4,1.7c8.5,0.6,14.6,8.1,14.3,16.3c-0.3,8.2-7,15.5-15.4,15.5
		c-16-0.1-32-0.9-47.9-1.2c-10.3-0.2-20.6,0-31.2,0c-0.2,2,1.9,2.9,3.1,4.2c22.3,22.9,44.7,45.7,67.1,68.6
		c7.2,7.4,8.2,15.8,2.6,22.9c-6.2,7.8-17.2,8.4-24.5,0.9c-18.4-18.6-36.5-37.5-54.9-56c-6.4-6.4-13.4-12.3-19.7-17.9
		c-0.2,3-0.7,7.2-0.8,11.5c-0.5,18.6-0.9,37.3-1.4,55.9c-0.1,3-0.3,6-0.7,8.9c-1.3,8.6-8.4,14.5-16.7,13.9
		c-8.3-0.6-15.3-7.3-15.2-15.7c0.1-15.3,0.8-30.6,1.2-45.9c0.6-20.3,1.2-40.6,1.8-60.9c0.1-2.3-1-3.8-2.4-5.2
		c-4.3-4.4-8.6-8.9-12.9-13.3c-31.9-32.7-63.8-65.3-95.7-97.9c-1.1-1.1-2.3-2.2-3.6-3.3c-1.4,1.6-0.9,3.2-0.9,4.5c0,21,0,42-0.1,63
		c0,3.3,0.9,5.6,3.3,7.8c18,16.8,35.9,33.8,53.8,50.8c5.6,5.3,6.6,12,3.3,18.7c-3,6.2-9.4,9.7-16.5,8.9c-4.3-0.5-7.7-2.8-10.8-5.8
		c-10-9.5-20.1-19-30.2-28.4c-0.6-0.5-1.3-1-1.9-1.5c-1.5,1.4-0.9,3-0.9,4.3c0,18.7,0,37.3-0.1,56c0,3.3,1,5.6,3.3,7.9
		c24.8,24.2,49.5,48.5,74.3,72.7c4.8,4.7,8.7,9.9,7.3,17.1c-1.2,6.3-4.8,10.9-11.2,12.8c-6.2,1.8-11.5,0.4-16.1-4.1
		c-17.6-17.3-35.2-34.6-52.9-51.9C403.4,656.8,402,655.6,400.6,654.3z"/>
</g>
</svg>
