<?xml version="1.0" encoding="utf-8"?>
<!-- Generator: Adobe Illustrator 22.0.1, SVG Export Plug-In . SVG Version: 6.00 Build 0)  -->
<svg version="1.1" id="Ebene_1" xmlns="http://www.w3.org/2000/svg" xmlns:xlink="http://www.w3.org/1999/xlink" x="0px" y="0px"
	 viewBox="0 0 1982.5 1881.6" style="enable-background:new 0 0 1982.5 1881.6;" xml:space="preserve">
<style type="text/css">
	.st0{fill:#F9E07D;}
	.st1{fill:#F7D54E;}
</style>
<g>
	<path class="st0" d="M1982.5,716.3c-0.6,0.1-1.2,0.1-1.9,0.2c-0.1-0.3-0.2-0.6-0.2-0.9c0.7-0.1,1.4-0.2,2.1-0.3
		C1982.5,715.7,1982.5,716,1982.5,716.3z"/>
	<path class="st1" d="M1980.5,715.6c0,0.3,0.1,0.6,0.2,0.9c-13.2,9.8-26.4,19.7-39.7,29.4c-71.2,51.9-142.4,103.8-213.6,155.7
		c-84,61.2-168,122.4-251.9,183.7c-34.6,25.2-69.2,50.5-103.8,75.6c-3.3,2.4-4.2,4.4-2.8,8.5c8.1,24.1,15.9,48.3,23.5,72.6
		c7.7,24.6,15.5,49.1,23.6,73.5c13.5,41.2,26.7,82.5,40.2,123.8c10.6,32.5,21,65.1,31.6,97.7c13.8,42.7,27.6,85.4,41.4,128.1
		c10.4,32.1,20.7,64.2,31.1,96.2c12.5,38.7,25,77.5,37.5,116.2c0.3,1.1,1.2,2.1,0.3,3.9c-7.8-5.7-15.6-11.3-23.3-17
		c-92.3-67.3-184.6-134.6-276.9-202c-100.5-73.3-201.1-146.6-301.5-220c-4.1-3-6.5-3-10.7,0.1c-94.9,69.4-190,138.6-285,207.9
		c-83.6,60.9-167.1,121.9-250.7,182.9c-22.1,16.1-44.2,32-66.4,48l0,0.1c0-5.8,2.6-11,4.3-16.3c7.2-21.6,13.9-43.3,21-65
		c6.4-19.6,12.8-39.2,19.2-58.8c10.6-32.4,21-64.8,31.4-97.2c13.8-42.8,27.7-85.7,41.5-128.5c10.5-32.4,21-64.8,31.4-97.2
		c13.8-42.8,27.6-85.7,41.5-128.5c10.5-32.6,21.1-65.1,31.6-97.7c2.5-7.7,4.8-15.5,7.5-23.2c1.2-3.4,0.7-5.4-2.3-7.6
		c-105.7-76.9-211.3-153.9-316.9-231c-96.5-70.3-192.9-140.7-289.4-211c-1.3-1-2.5-2.1-3.7-3.2c0-0.2,0-0.3,0-0.5
		c2.3-0.1,4.7-0.2,7-0.2c248.3,0,496.6,0,744.9,0.1c5.5,0,7.6-1.8,9.2-6.9c10.3-32.8,21.1-65.5,31.7-98.2
		c10.3-31.9,20.6-63.9,31-95.8c14-43.5,28.1-87,42.1-130.4c10.3-31.8,20.7-63.5,30.8-95.4c7.5-23.6,14.9-47.2,22.6-70.7
		C936.8,166.7,953.2,115,970,63.5c6.2-19.1,12.3-38.3,18.6-57.4c0.7-2,0.9-4.3,2.6-6.1c8,24.6,15.9,49.1,23.8,73.6
		c11.3,35.1,22.7,70.2,33.9,105.4c7.6,23.9,15.2,47.8,23,71.6c9.7,29.7,19.3,59.4,28.9,89.1c7.8,24,15.5,48,23.2,72.1
		c6,19,12.4,37.9,18.5,56.9c7.8,24.4,15.8,48.6,23.4,73.1c9.4,30.5,19.9,60.6,29.6,91c7.4,23.2,15.6,46.3,22.2,69.8
		c0.3,1.1,1,2.1,1.5,3.2c3.7,9.8,3.7,9.8,13.9,9.8c246.8,0,493.6,0,740.4,0C1975.8,715.5,1978.1,715.6,1980.5,715.6z"/>
	<path class="st0" d="M0.7,715.7c0,0.2,0,0.3,0,0.5c-0.2-0.1-0.4-0.2-0.6-0.3C0.2,715.8,0.4,715.7,0.7,715.7z"/>
	<path class="st1" d="M383.5,1881.3c-0.1,0.1-0.1,0.2-0.2,0.3C383.4,1881.5,383.5,1881.4,383.5,1881.3
		C383.6,1881.4,383.5,1881.3,383.5,1881.3z"/>
</g>
</svg>
